# xmcd
#
# Track frame offsets:
#	150
#	9841
#	22488
#	35048
#	50970
#	64217
#	77547
#	89840
#	101707
#	119697
#	131059
#	144186
#
# Disc length: 2089 seconds
#
# Revision: 1
# Processed by: cddbd v1.5.2PL0 Copyright (c) Steve Scherf et al.
# Submitted via: audiograbber 1.83.01
#
DISCID=b208270c
DTITLE=Jimmy Needham Jr - Same Old Sad Song
DYEAR=1900
DGENRE=
TTITLE0=Bi Blue Diamonds
TTITLE1=Poppa On A Roll
TTITLE2=Neon Haze
TTITLE3=Over Easy
TTITLE4=Same Old Sad Song
TTITLE5=It Ain´t Over Till It´s Over
TTITLE6=What About Me
TTITLE7=Right Where I Was Wrong
TTITLE8=Old Bandit
TTITLE9=Blue Blue Day
TTITLE10=Oklahoma
TTITLE11=Caffine
EXTD=
EXTT0=
EXTT1=
EXTT2=
EXTT3=
EXTT4=
EXTT5=
EXTT6=
EXTT7=
EXTT8=
EXTT9=
EXTT10=
EXTT11=
PLAYORDER=
